# xmcd
#
# Track frame offsets:
#	150
#	38623
#	75822
#	109885
#	149435
#
# Disc length: 2498 seconds
#
# Revision: 1
# Processed by: cddbd v1.5.2PL0 Copyright (c) Steve Scherf et al.
# Submitted via: audiograbber 1.83.01
#
DISCID=3309c005
DTITLE=Matt Abott and DSE - Far From Home
DYEAR=2007
DGENRE=Trance
TTITLE0=Far From Home (Original Mix)
TTITLE1=Far From Home (Digital Nature Remix)
TTITLE2=Far From Home (Mark Versluis Remix)
TTITLE3=Far From Home (Patrick Markus Remix)
TTITLE4=Far From Home (Santerna Remix)
EXTD=
EXTT0=
EXTT1=
EXTT2=
EXTT3=
EXTT4=
PLAYORDER=
